<svg xmlns="http://www.w3.org/2000/svg" xmlns:xlink="http://www.w3.org/1999/xlink" width="1584" zoomAndPan="magnify" viewBox="0 0 1188 296.999993" height="396" preserveAspectRatio="xMidYMid meet" version="1.0"><defs><g/><clipPath id="92e0946af9"><path d="M 10.792969 4.015625 L 232.042969 4.015625 L 232.042969 292.765625 L 10.792969 292.765625 Z M 10.792969 4.015625 " clip-rule="nonzero"/></clipPath></defs><path fill="#53adae" d="M 118.125 94.257812 L 100.195312 94.257812 L 100.195312 75.804688 L 118.125 75.804688 Z M 142.8125 75.804688 L 124.882812 75.804688 L 124.882812 94.257812 L 142.8125 94.257812 Z M 100.195312 118.949219 L 118.125 118.949219 L 118.125 100.496094 L 100.195312 100.496094 Z M 124.882812 118.949219 L 142.8125 118.949219 L 142.8125 100.496094 L 124.882812 100.496094 Z M 124.882812 118.949219 " fill-opacity="1" fill-rule="nonzero"/><g clip-path="url(#92e0946af9)"><path fill="#087c7c" d="M 232.210938 99.453125 C 232.210938 124.917969 222.296875 148.878906 204.289062 166.882812 C 186.28125 184.890625 162.339844 194.832031 136.875 194.832031 L 56.011719 194.832031 L 56.011719 247.808594 L 10.792969 292.914062 L 10.792969 149.613281 L 135.445312 149.613281 C 164.207031 149.613281 187.511719 126.347656 187.511719 97.589844 L 187.511719 97.636719 L 201.847656 97.636719 L 121.660156 17.445312 L 41.464844 97.640625 L 56.011719 97.640625 L 56.011719 118.953125 L 10.792969 118.953125 L 10.792969 4.082031 L 136.875 4.082031 C 162.339844 4.082031 186.28125 14.015625 204.289062 32.023438 C 222.296875 50.027344 232.210938 73.988281 232.210938 99.453125 Z M 232.210938 99.453125 " fill-opacity="1" fill-rule="nonzero"/></g><g fill="#087c7c" fill-opacity="1"><g transform="translate(232.216919, 258.267362)"><g><path d="M 30.4375 0 L 30.4375 -43.222656 C 30.4375 -65.375 42.414062 -78.253906 58.53125 -78.253906 L 66.636719 -78.253906 L 66.636719 -91.851562 L 57.722656 -91.851562 C 44.394531 -91.851562 34.308594 -84.015625 29.804688 -71.320312 L 29.804688 -91.851562 L 14.859375 -91.851562 L 14.859375 0 Z M 30.4375 0 "/></g></g></g><g fill="#087c7c" fill-opacity="1"><g transform="translate(302.088718, 258.267362)"><g><path d="M 54.839844 2.613281 C 82.304688 2.613281 102.746094 -18.910156 102.746094 -45.925781 C 102.746094 -72.847656 82.214844 -94.460938 54.839844 -94.460938 C 27.554688 -94.460938 7.113281 -72.757812 7.113281 -45.925781 C 7.113281 -18.910156 27.644531 2.613281 54.839844 2.613281 Z M 55.019531 -11.976562 C 36.738281 -11.976562 22.601562 -26.382812 22.601562 -45.925781 C 22.601562 -65.285156 36.738281 -79.875 55.019531 -79.875 C 73.210938 -79.875 87.257812 -65.285156 87.257812 -45.925781 C 87.257812 -26.382812 73.210938 -11.976562 55.019531 -11.976562 Z M 55.019531 -11.976562 "/></g></g></g><g fill="#087c7c" fill-opacity="1"><g transform="translate(411.938712, 258.267362)"><g><path d="M 30.347656 31.335938 L 30.347656 -8.824219 L 30.078125 -19.179688 C 36.558594 -5.851562 50.15625 2.613281 65.285156 2.613281 C 90.949219 2.613281 110.398438 -18.910156 110.398438 -45.925781 C 110.398438 -72.757812 91.039062 -94.371094 65.105469 -94.371094 C 49.167969 -94.371094 36.109375 -84.917969 29.714844 -72.21875 L 29.714844 -91.851562 L 14.859375 -91.851562 L 14.859375 31.335938 Z M 62.582031 -11.796875 C 44.933594 -11.796875 30.257812 -26.382812 30.257812 -45.925781 C 30.257812 -64.925781 44.664062 -79.964844 62.582031 -79.964844 C 80.503906 -79.964844 95 -65.734375 95 -45.925781 C 95 -25.664062 80.234375 -11.796875 62.582031 -11.796875 Z M 62.582031 -11.796875 "/></g></g></g><g fill="#087c7c" fill-opacity="1"><g transform="translate(529.532228, 258.267362)"><g><path d="M 99.234375 -48.175781 C 99.234375 -72.847656 80.324219 -94.460938 53.847656 -94.460938 C 27.285156 -94.460938 7.113281 -72.757812 7.113281 -45.925781 C 7.113281 -19 27.285156 2.519531 53.847656 2.519531 C 74.742188 2.519531 91.128906 -10.804688 96.351562 -27.644531 L 78.972656 -27.644531 C 74.921875 -17.289062 65.824219 -11.886719 53.488281 -11.886719 C 38.359375 -11.886719 24.671875 -23.414062 22.78125 -41.871094 L 98.964844 -41.871094 C 99.144531 -45.203125 99.234375 -46.554688 99.234375 -48.175781 Z M 23.503906 -55.558594 C 27.015625 -71.410156 39.800781 -79.875 53.578125 -79.875 C 69.246094 -79.875 82.484375 -68.617188 83.386719 -55.558594 Z M 23.503906 -55.558594 "/></g></g></g><g fill="#087c7c" fill-opacity="1"><g transform="translate(634.429969, 258.267362)"><g><path d="M 30.4375 0 L 30.4375 -43.222656 C 30.4375 -65.375 42.414062 -78.253906 58.53125 -78.253906 L 66.636719 -78.253906 L 66.636719 -91.851562 L 57.722656 -91.851562 C 44.394531 -91.851562 34.308594 -84.015625 29.804688 -71.320312 L 29.804688 -91.851562 L 14.859375 -91.851562 L 14.859375 0 Z M 30.4375 0 "/></g></g></g><g fill="#087c7c" fill-opacity="1"><g transform="translate(704.301769, 258.267362)"><g><path d="M 67.265625 0 L 67.265625 -13.148438 L 53.398438 -13.148438 C 45.203125 -13.148438 36.921875 -16.207031 36.921875 -33.316406 L 36.921875 -78.253906 L 67.265625 -78.253906 L 67.265625 -91.851562 L 36.921875 -91.851562 L 36.921875 -119.226562 L 21.429688 -119.132812 L 21.429688 -91.851562 L 0.992188 -91.851562 L 0.992188 -78.253906 L 21.429688 -78.253906 L 21.429688 -34.039062 C 21.429688 -5.402344 36.378906 0 50.335938 0 Z M 67.265625 0 "/></g></g></g><g fill="#087c7c" fill-opacity="1"><g transform="translate(776.694717, 258.267362)"><g><path d="M 19.71875 31.335938 C 39.621094 31.335938 46.644531 23.324219 57 -2.519531 L 93.199219 -91.851562 L 76.722656 -91.757812 L 50.878906 -26.835938 L 48.535156 -18.820312 L 46.375 -26.925781 L 20.351562 -91.851562 L 3.871094 -91.851562 L 40.34375 -2.703125 L 39.351562 -0.0898438 C 34.578125 12.425781 30.886719 18.28125 19.8125 18.28125 L 4.59375 18.28125 L 4.59375 31.335938 Z M 19.71875 31.335938 "/></g></g></g><g fill="#087c7c" fill-opacity="1"><g transform="translate(871.057661, 258.267362)"><g><path d="M 110.398438 -122.464844 L 91.578125 -122.464844 L 32.597656 -49.886719 L 32.597656 -122.464844 L 16.660156 -122.464844 L 16.660156 0 L 32.597656 0 L 32.597656 -28.636719 L 55.46875 -56.730469 L 98.152344 0 L 117.242188 0 L 65.914062 -68.4375 Z M 110.398438 -122.464844 "/></g></g></g><g fill="#087c7c" fill-opacity="1"><g transform="translate(990.271915, 258.267362)"><g><path d="M 51.507812 2.613281 C 67.898438 2.613281 81.675781 -5.941406 87.886719 -19.539062 L 87.886719 0 L 102.746094 0 L 102.746094 -91.851562 L 87.886719 -91.851562 L 87.886719 -72.128906 C 81.675781 -85.816406 67.988281 -94.371094 51.417969 -94.371094 C 26.472656 -94.371094 7.113281 -72.757812 7.113281 -45.925781 C 7.113281 -18.910156 26.382812 2.613281 51.507812 2.613281 Z M 54.929688 -11.886719 C 37.28125 -11.886719 22.511719 -25.574219 22.511719 -45.925781 C 22.511719 -65.734375 37.101562 -79.875 55.019531 -79.875 C 72.847656 -79.875 87.347656 -64.925781 87.347656 -45.925781 C 87.347656 -26.65625 72.941406 -11.886719 54.929688 -11.886719 Z M 54.929688 -11.886719 "/></g></g></g><g fill="#087c7c" fill-opacity="1"><g transform="translate(1107.865431, 258.267362)"><g><path d="M 30.4375 0 L 30.4375 -43.222656 C 30.4375 -65.375 42.414062 -78.253906 58.53125 -78.253906 L 66.636719 -78.253906 L 66.636719 -91.851562 L 57.722656 -91.851562 C 44.394531 -91.851562 34.308594 -84.015625 29.804688 -71.320312 L 29.804688 -91.851562 L 14.859375 -91.851562 L 14.859375 0 Z M 30.4375 0 "/></g></g></g></svg>