<svg xmlns="http://www.w3.org/2000/svg" xmlns:xlink="http://www.w3.org/1999/xlink" width="500" zoomAndPan="magnify" viewBox="0 0 375 374.999991" height="500" preserveAspectRatio="xMidYMid meet" version="1.0"><defs><g/><clipPath id="6c34b212fc"><path d="M 85.433594 12.808594 L 289.433594 12.808594 L 289.433594 279.058594 L 85.433594 279.058594 Z M 85.433594 12.808594 " clip-rule="nonzero"/></clipPath></defs><path fill="#0cc0df" d="M 184.382812 96.007812 L 167.851562 96.007812 L 167.851562 78.996094 L 184.382812 78.996094 Z M 207.144531 78.996094 L 190.613281 78.996094 L 190.613281 96.007812 L 207.144531 96.007812 Z M 167.851562 118.769531 L 184.382812 118.769531 L 184.382812 101.757812 L 167.851562 101.757812 Z M 190.613281 118.769531 L 207.144531 118.769531 L 207.144531 101.757812 L 190.613281 101.757812 Z M 190.613281 118.769531 " fill-opacity="1" fill-rule="nonzero"/><g clip-path="url(#6c34b212fc)"><path fill="#ffffff" d="M 289.566406 100.796875 C 289.566406 124.273438 280.421875 146.363281 263.820312 162.964844 C 247.222656 179.5625 225.148438 188.726562 201.671875 188.726562 L 127.121094 188.726562 L 127.121094 237.570312 L 85.433594 279.15625 L 85.433594 147.039062 L 200.355469 147.039062 C 226.867188 147.039062 248.355469 125.589844 248.355469 99.078125 L 248.355469 99.121094 L 261.570312 99.121094 L 187.644531 25.191406 L 113.707031 99.125 L 127.121094 99.125 L 127.121094 118.773438 L 85.433594 118.773438 L 85.433594 12.871094 L 201.671875 12.871094 C 225.148438 12.871094 247.222656 22.03125 263.820312 38.628906 C 280.421875 55.230469 289.566406 77.320312 289.566406 100.796875 Z M 289.566406 100.796875 " fill-opacity="1" fill-rule="nonzero"/></g><g fill="#ffffff" fill-opacity="1"><g transform="translate(7.160988, 352.179015)"><g><path d="M 11.101562 0 L 11.101562 -14.257812 L 22.90625 -14.257812 C 30.910156 -14.257812 36.644531 -19.929688 36.644531 -28.089844 C 36.644531 -35.96875 30.878906 -41.703125 22.785156 -41.703125 L 5.671875 -41.703125 L 5.671875 0 Z M 11.101562 -36.828125 L 22.597656 -36.828125 C 27.503906 -36.828125 31.214844 -32.839844 31.214844 -28.058594 C 31.214844 -22.996094 27.535156 -19.164062 22.660156 -19.164062 L 11.101562 -19.164062 Z M 11.101562 -36.828125 "/></g></g></g><g fill="#ffffff" fill-opacity="1"><g transform="translate(45.058433, 352.179015)"><g><path d="M 10.363281 0 L 10.363281 -14.71875 C 10.363281 -22.261719 14.441406 -26.648438 19.929688 -26.648438 L 22.691406 -26.648438 L 22.691406 -31.277344 L 19.65625 -31.277344 C 15.117188 -31.277344 11.683594 -28.609375 10.148438 -24.285156 L 10.148438 -31.277344 L 5.058594 -31.277344 L 5.058594 0 Z M 10.363281 0 "/></g></g></g><g fill="#ffffff" fill-opacity="1"><g transform="translate(68.851652, 352.179015)"><g><path d="M 18.675781 0.890625 C 28.027344 0.890625 34.988281 -6.4375 34.988281 -15.636719 C 34.988281 -24.808594 27.996094 -32.167969 18.675781 -32.167969 C 9.382812 -32.167969 2.421875 -24.777344 2.421875 -15.636719 C 2.421875 -6.4375 9.414062 0.890625 18.675781 0.890625 Z M 18.734375 -4.078125 C 12.511719 -4.078125 7.695312 -8.984375 7.695312 -15.636719 C 7.695312 -22.230469 12.511719 -27.199219 18.734375 -27.199219 C 24.929688 -27.199219 29.714844 -22.230469 29.714844 -15.636719 C 29.714844 -8.984375 24.929688 -4.078125 18.734375 -4.078125 Z M 18.734375 -4.078125 "/></g></g></g><g fill="#ffffff" fill-opacity="1"><g transform="translate(106.258516, 352.179015)"><g><path d="M 10.332031 10.671875 L 10.332031 -3.003906 L 10.242188 -6.53125 C 12.449219 -1.992188 17.078125 0.890625 22.230469 0.890625 C 30.96875 0.890625 37.59375 -6.4375 37.59375 -15.636719 C 37.59375 -24.777344 31 -32.136719 22.171875 -32.136719 C 16.742188 -32.136719 12.296875 -28.917969 10.117188 -24.59375 L 10.117188 -31.277344 L 5.058594 -31.277344 L 5.058594 10.671875 Z M 21.3125 -4.015625 C 15.300781 -4.015625 10.304688 -8.984375 10.304688 -15.636719 C 10.304688 -22.109375 15.210938 -27.230469 21.3125 -27.230469 C 27.414062 -27.230469 32.351562 -22.382812 32.351562 -15.636719 C 32.351562 -8.738281 27.320312 -4.015625 21.3125 -4.015625 Z M 21.3125 -4.015625 "/></g></g></g><g fill="#ffffff" fill-opacity="1"><g transform="translate(146.302257, 352.179015)"><g><path d="M 33.792969 -16.40625 C 33.792969 -24.808594 27.351562 -32.167969 18.335938 -32.167969 C 9.292969 -32.167969 2.421875 -24.777344 2.421875 -15.636719 C 2.421875 -6.46875 9.292969 0.859375 18.335938 0.859375 C 25.449219 0.859375 31.03125 -3.679688 32.808594 -9.414062 L 26.890625 -9.414062 C 25.511719 -5.886719 22.414062 -4.046875 18.214844 -4.046875 C 13.0625 -4.046875 8.402344 -7.972656 7.757812 -14.257812 L 33.699219 -14.257812 C 33.761719 -15.394531 33.792969 -15.851562 33.792969 -16.40625 Z M 8.003906 -18.917969 C 9.199219 -24.316406 13.554688 -27.199219 18.246094 -27.199219 C 23.582031 -27.199219 28.089844 -23.367188 28.394531 -18.917969 Z M 8.003906 -18.917969 "/></g></g></g><g fill="#ffffff" fill-opacity="1"><g transform="translate(182.022746, 352.179015)"><g><path d="M 10.363281 0 L 10.363281 -14.71875 C 10.363281 -22.261719 14.441406 -26.648438 19.929688 -26.648438 L 22.691406 -26.648438 L 22.691406 -31.277344 L 19.65625 -31.277344 C 15.117188 -31.277344 11.683594 -28.609375 10.148438 -24.285156 L 10.148438 -31.277344 L 5.058594 -31.277344 L 5.058594 0 Z M 10.363281 0 "/></g></g></g><g fill="#ffffff" fill-opacity="1"><g transform="translate(205.815965, 352.179015)"><g><path d="M 22.90625 0 L 22.90625 -4.476562 L 18.183594 -4.476562 C 15.394531 -4.476562 12.570312 -5.519531 12.570312 -11.34375 L 12.570312 -26.648438 L 22.90625 -26.648438 L 22.90625 -31.277344 L 12.570312 -31.277344 L 12.570312 -40.597656 L 7.296875 -40.570312 L 7.296875 -31.277344 L 0.335938 -31.277344 L 0.335938 -26.648438 L 7.296875 -26.648438 L 7.296875 -11.589844 C 7.296875 -1.839844 12.386719 0 17.140625 0 Z M 22.90625 0 "/></g></g></g><g fill="#ffffff" fill-opacity="1"><g transform="translate(230.467702, 352.179015)"><g><path d="M 6.714844 10.671875 C 13.492188 10.671875 15.882812 7.941406 19.410156 -0.859375 L 31.738281 -31.277344 L 26.125 -31.246094 L 17.324219 -9.136719 L 16.527344 -6.410156 L 15.792969 -9.167969 L 6.929688 -31.277344 L 1.320312 -31.277344 L 13.738281 -0.917969 L 13.398438 -0.03125 C 11.773438 4.230469 10.519531 6.226562 6.746094 6.226562 L 1.5625 6.226562 L 1.5625 10.671875 Z M 6.714844 10.671875 "/></g></g></g><g fill="#ffffff" fill-opacity="1"><g transform="translate(262.60081, 352.179015)"><g><path d="M 37.59375 -41.703125 L 31.183594 -41.703125 L 11.101562 -16.988281 L 11.101562 -41.703125 L 5.671875 -41.703125 L 5.671875 0 L 11.101562 0 L 11.101562 -9.75 L 18.890625 -19.316406 L 33.421875 0 L 39.925781 0 L 22.445312 -23.304688 Z M 37.59375 -41.703125 "/></g></g></g><g fill="#ffffff" fill-opacity="1"><g transform="translate(303.196456, 352.179015)"><g><path d="M 17.539062 0.890625 C 23.121094 0.890625 27.8125 -2.023438 29.929688 -6.652344 L 29.929688 0 L 34.988281 0 L 34.988281 -31.277344 L 29.929688 -31.277344 L 29.929688 -24.5625 C 27.8125 -29.222656 23.152344 -32.136719 17.507812 -32.136719 C 9.015625 -32.136719 2.421875 -24.777344 2.421875 -15.636719 C 2.421875 -6.4375 8.984375 0.890625 17.539062 0.890625 Z M 18.703125 -4.046875 C 12.695312 -4.046875 7.664062 -8.707031 7.664062 -15.636719 C 7.664062 -22.382812 12.632812 -27.199219 18.734375 -27.199219 C 24.808594 -27.199219 29.742188 -22.109375 29.742188 -15.636719 C 29.742188 -9.078125 24.835938 -4.046875 18.703125 -4.046875 Z M 18.703125 -4.046875 "/></g></g></g><g fill="#ffffff" fill-opacity="1"><g transform="translate(343.240197, 352.179015)"><g><path d="M 10.363281 0 L 10.363281 -14.71875 C 10.363281 -22.261719 14.441406 -26.648438 19.929688 -26.648438 L 22.691406 -26.648438 L 22.691406 -31.277344 L 19.65625 -31.277344 C 15.117188 -31.277344 11.683594 -28.609375 10.148438 -24.285156 L 10.148438 -31.277344 L 5.058594 -31.277344 L 5.058594 0 Z M 10.363281 0 "/></g></g></g></svg>